<?xml version="1.0" standalone="no"?>
<!DOCTYPE svg PUBLIC "-//W3C//DTD SVG 20010904//EN"
 "http://www.w3.org/TR/2001/REC-SVG-20010904/DTD/svg10.dtd">
<svg version="1.0" xmlns="http://www.w3.org/2000/svg"
 width="200.000000pt" height="200.000000pt" viewBox="0 0 200.000000 200.000000"
 preserveAspectRatio="xMidYMid meet">
<metadata>
Created by potrace 1.14, written by Peter Selinger 2001-2017
</metadata>
<g transform="translate(0.000000,200.000000) scale(0.100000,-0.100000)"
fill="#000000" stroke="none">
<path d="M0 1000 l0 -1000 1000 0 1000 0 0 1000 0 1000 -1000 0 -1000 0 0
-1000z m1870 15 l0 -475 -855 0 -855 0 0 475 0 475 855 0 855 0 0 -475z"/>
<path d="M230 1015 l0 -405 785 0 785 0 0 405 0 405 -785 0 -785 0 0 -405z
m321 229 c49 -25 59 -64 59 -230 0 -212 -22 -244 -169 -244 l-71 0 0 245 0
245 75 0 c49 0 87 -6 106 -16z m339 -19 c0 -34 -1 -35 -40 -35 l-40 0 0 -210
0 -210 -40 0 -40 0 0 210 0 210 -40 0 c-39 0 -40 1 -40 35 l0 35 120 0 120 0
0 -35z m143 -2 c3 -21 11 -87 18 -147 14 -125 17 -122 49 57 l23 127 28 0 c33
0 29 10 63 -170 13 -69 26 -118 29 -110 3 8 11 75 18 148 l12 132 39 0 c31 0
38 -4 38 -20 0 -11 -16 -119 -35 -240 -19 -121 -35 -223 -35 -225 0 -3 -15 -5
-34 -5 -41 0 -37 -9 -68 167 -12 74 -25 125 -29 115 -3 -9 -17 -77 -29 -150
l-23 -133 -36 3 -36 3 -32 205 c-17 113 -34 222 -37 243 l-6 37 39 0 c37 0 39
-2 44 -37z m567 22 c52 -27 60 -57 60 -225 0 -222 -19 -250 -170 -250 l-70 0
0 245 0 245 75 0 c48 0 87 -6 105 -15z"/>
<path d="M444 1177 c-2 -7 -3 -85 -2 -172 l3 -160 28 -3 c53 -6 57 6 57 172 0
105 -4 156 -12 164 -16 16 -67 15 -74 -1z"/>
<path d="M1500 1015 l0 -175 29 0 c16 0 34 7 41 15 15 19 14 303 -2 322 -6 7
-23 13 -39 13 l-29 0 0 -175z"/>
</g>
</svg>
